<?xml version="1.0" encoding="utf-8"?>
<!-- Generator: Adobe Illustrator 18.1.0, SVG Export Plug-In . SVG Version: 6.00 Build 0)  -->
<svg version="1.1" id="Layer_1" xmlns="http://www.w3.org/2000/svg" xmlns:xlink="http://www.w3.org/1999/xlink" x="0px" y="0px"
	 viewBox="0 0 56 63.8" enable-background="new 0 0 56 63.8" xml:space="preserve">
<g>
	<path d="M27.8,1c-12.7,0-23,10.3-23,23s10.3,23,23,23s23-10.3,23-23S40.5,1,27.8,1z M27.8,45c-11.6,0-21-9.4-21-21s9.4-21,21-21
		s21,9.4,21,21S39.4,45,27.8,45z"/>
	<path d="M36,24H21.9l3.8-3.8c0.4-0.4,0.4-1,0-1.4s-1-0.4-1.4,0l-5.5,5.5c-0.1,0.1-0.2,0.2-0.2,0.3c-0.1,0.1-0.1,0.3-0.1,0.4
		s0,0.3,0.1,0.4c0.1,0.1,0.1,0.2,0.2,0.3l5.5,5.5c0.2,0.2,0.5,0.3,0.7,0.3s0.5-0.1,0.7-0.3c0.4-0.4,0.4-1,0-1.4L21.9,26H36
		c0.6,0,1-0.4,1-1S36.6,24,36,24z"/>
</g>
<g>
	<path d="M7.7,61.8c-0.3,0.3-0.6,0.6-1.2,0.9s-1.2,0.4-2,0.4c-1,0-1.9-0.3-2.6-1s-1-1.5-1-2.5v-1.8c0-1,0.3-1.9,1-2.5s1.5-1,2.5-1
		c1,0,1.8,0.3,2.4,0.8s0.8,1.2,0.8,2l0,0H5.9c0-0.5-0.2-0.8-0.4-1.1s-0.6-0.4-1.1-0.4c-0.5,0-0.9,0.2-1.3,0.6s-0.5,0.9-0.5,1.6v1.8
		c0,0.6,0.2,1.2,0.5,1.6c0.3,0.4,0.8,0.6,1.3,0.6c0.4,0,0.7,0,1-0.1c0.2-0.1,0.4-0.2,0.6-0.3v-1.6H4.4v-1.2h3.2V61.8z"/>
	<path d="M16.2,59.4c0,1-0.3,1.9-1,2.6s-1.5,1-2.6,1c-1.1,0-1.9-0.3-2.6-1s-1-1.5-1-2.6v-1.5c0-1,0.3-1.9,1-2.6s1.5-1,2.6-1
		c1.1,0,1.9,0.3,2.6,1s1,1.5,1,2.6V59.4z M14.5,57.9c0-0.7-0.2-1.2-0.5-1.6c-0.3-0.4-0.8-0.6-1.4-0.6s-1,0.2-1.4,0.6
		c-0.3,0.4-0.5,1-0.5,1.6v1.5c0,0.7,0.2,1.2,0.5,1.7c0.3,0.4,0.8,0.6,1.4,0.6c0.6,0,1-0.2,1.4-0.6c0.3-0.4,0.5-1,0.5-1.7V57.9z"/>
	<path d="M27.9,62.9h-1.7v-3.5h-3.5v3.5H21v-8.5h1.7v3.7h3.5v-3.7h1.7V62.9z"/>
	<path d="M36.6,59.4c0,1-0.3,1.9-1,2.6s-1.5,1-2.6,1c-1.1,0-1.9-0.3-2.6-1s-1-1.5-1-2.6v-1.5c0-1,0.3-1.9,1-2.6s1.5-1,2.6-1
		c1.1,0,1.9,0.3,2.6,1s1,1.5,1,2.6V59.4z M34.9,57.9c0-0.7-0.2-1.2-0.5-1.6c-0.3-0.4-0.8-0.6-1.4-0.6s-1,0.2-1.4,0.6
		c-0.3,0.4-0.5,1-0.5,1.6v1.5c0,0.7,0.2,1.2,0.5,1.7c0.3,0.4,0.8,0.6,1.4,0.6c0.6,0,1-0.2,1.4-0.6c0.3-0.4,0.5-1,0.5-1.7V57.9z"/>
	<path d="M40.4,54.4l2.2,6.3h0l2.2-6.3h2.2v8.5h-1.7v-2.5l0.2-3.8l0,0l-2.3,6.3h-1.1l-2.3-6.3l0,0l0.2,3.7v2.5h-1.7v-8.5H40.4z"/>
	<path d="M54.2,59.2h-3.5v2.4h4.1v1.3h-5.8v-8.5h5.8v1.3h-4.1v2.1h3.5V59.2z"/>
</g>
</svg>
