<?xml version="1.0" encoding="utf-8"?>
<!-- Generator: Adobe Illustrator 19.0.0, SVG Export Plug-In . SVG Version: 6.00 Build 0)  -->
<svg version="1.1" id="Layer_1" xmlns="http://www.w3.org/2000/svg" xmlns:xlink="http://www.w3.org/1999/xlink" x="0px" y="0px"
	 viewBox="0 0 276.3 276.3" style="enable-background:new 0 0 276.3 276.3;" xml:space="preserve">
<style type="text/css">
	.st0{opacity:5.000000e-02;}
	.st1{fill:#6D207F;}
</style>
<g id="XMLID_55_" class="st0">
	<g id="XMLID_899_">
		<g id="XMLID_902_">
			<path id="XMLID_903_" class="st1" d="M222.7,148.7c-0.2,0-0.5,0-0.7-0.1c-6.3-1.3-11.8-5.1-15.3-10.6c-3.5-5.5-4.7-12-3.4-18.3
				c0.4-1.8,2.1-2.9,3.9-2.6c1.8,0.4,2.9,2.1,2.6,3.9c-1,4.6-0.1,9.4,2.5,13.4c2.6,4,6.5,6.7,11.1,7.7c1.8,0.4,2.9,2.1,2.6,3.9
				C225.6,147.7,224.2,148.7,222.7,148.7z"/>
		</g>
		<g id="XMLID_900_">
			<path id="XMLID_901_" class="st1" d="M241.1,174.4c-0.2,0-0.5,0-0.7-0.1c-1.8-0.4-2.9-2.1-2.6-3.9c1-4.6,0.1-9.4-2.5-13.4
				c-2.6-4-6.5-6.7-11.1-7.7c-1.8-0.4-2.9-2.1-2.6-3.9c0.4-1.8,2.1-2.9,3.9-2.6c6.3,1.3,11.8,5.1,15.3,10.6c3.5,5.5,4.7,12,3.4,18.3
				C244,173.3,242.7,174.4,241.1,174.4z"/>
		</g>
	</g>
	<g id="XMLID_894_">
		<g id="XMLID_897_">
			<path id="XMLID_898_" class="st1" d="M143,228.8c-0.2,0-0.5,0-0.7-0.1c-13.1-2.8-21.5-15.7-18.7-28.9c0.4-1.8,2.1-2.9,3.9-2.6
				c1.8,0.4,2.9,2.1,2.6,3.9c-2,9.6,4.1,19,13.6,21.1c1.8,0.4,2.9,2.1,2.6,3.9C145.9,227.7,144.5,228.8,143,228.8z"/>
		</g>
		<g id="XMLID_895_">
			<path id="XMLID_896_" class="st1" d="M161.4,254.5c-0.2,0-0.5,0-0.7-0.1c-1.8-0.4-2.9-2.1-2.6-3.9c2-9.6-4.1-19-13.6-21.1
				c-1.8-0.4-2.9-2.1-2.6-3.9c0.4-1.8,2.1-2.9,3.9-2.6c13.1,2.8,21.5,15.7,18.7,28.9C164.3,253.4,162.9,254.5,161.4,254.5z"/>
		</g>
	</g>
	<g id="XMLID_889_">
		<g id="XMLID_892_">
			<path id="XMLID_893_" class="st1" d="M45.9,129.2c-0.2,0-0.5,0-0.7-0.1c-6.3-1.3-11.8-5.1-15.3-10.6c-3.5-5.5-4.7-12-3.4-18.3
				c0.4-1.8,2.1-2.9,3.9-2.6c1.8,0.4,2.9,2.1,2.6,3.9c-1,4.6-0.1,9.4,2.5,13.4c2.6,4,6.5,6.7,11.1,7.7c1.8,0.4,2.9,2.1,2.6,3.9
				C48.8,128.1,47.4,129.2,45.9,129.2z"/>
		</g>
		<g id="XMLID_890_">
			<path id="XMLID_891_" class="st1" d="M64.3,154.9c-0.2,0-0.5,0-0.7-0.1c-1.8-0.4-2.9-2.1-2.6-3.9c2-9.6-4.1-19-13.6-21.1
				c-1.8-0.4-2.9-2.1-2.6-3.9c0.4-1.8,2.1-2.9,3.9-2.6c13.1,2.8,21.5,15.7,18.7,28.9C67.2,153.8,65.8,154.9,64.3,154.9z"/>
		</g>
	</g>
	<g id="XMLID_885_">
		<path id="XMLID_886_" class="st1" d="M20.3,214.9c-5.8,0-10.6-4.8-10.6-10.6c0-5.8,4.8-10.6,10.6-10.6s10.6,4.8,10.6,10.6
			C30.9,210.2,26.1,214.9,20.3,214.9z M20.3,200.4c-2.2,0-4,1.8-4,4c0,2.2,1.8,4,4,4s4-1.8,4-4C24.2,202.1,22.5,200.4,20.3,200.4z"
			/>
	</g>
	<g id="XMLID_881_">
		<path id="XMLID_882_" class="st1" d="M239.4,105c-5.8,0-10.6-4.8-10.6-10.6c0-5.8,4.8-10.6,10.6-10.6S250,88.5,250,94.4
			C250,100.2,245.2,105,239.4,105z M239.4,90.4c-2.2,0-4,1.8-4,4c0,2.2,1.8,4,4,4s4-1.8,4-4C243.4,92.2,241.6,90.4,239.4,90.4z"/>
	</g>
	<g id="XMLID_877_">
		<path id="XMLID_878_" class="st1" d="M228.6,243.3c-5.8,0-10.6-4.8-10.6-10.6c0-5.8,4.8-10.6,10.6-10.6s10.6,4.8,10.6,10.6
			C239.2,238.5,234.4,243.3,228.6,243.3z M228.6,228.7c-2.2,0-4,1.8-4,4c0,2.2,1.8,4,4,4s4-1.8,4-4
			C232.5,230.5,230.8,228.7,228.6,228.7z"/>
	</g>
	<g id="XMLID_873_">
		<path id="XMLID_874_" class="st1" d="M128.8,89.5c-5.8,0-10.6-4.8-10.6-10.6c0-5.8,4.8-10.6,10.6-10.6c5.8,0,10.6,4.8,10.6,10.6
			C139.4,84.8,134.6,89.5,128.8,89.5z M128.8,74.9c-2.2,0-4,1.8-4,4c0,2.2,1.8,4,4,4c2.2,0,4-1.8,4-4
			C132.8,76.7,131,74.9,128.8,74.9z"/>
	</g>
	<g id="XMLID_871_">
		<path id="XMLID_872_" class="st1" d="M144.2,44.1c-0.9,0-1.7-0.3-2.3-1L129.8,31c-1.3-1.3-1.3-3.4,0-4.7c1.3-1.3,3.4-1.3,4.7,0
			l12.1,12.2c1.3,1.3,1.3,3.4,0,4.7C145.9,43.8,145,44.1,144.2,44.1z"/>
	</g>
	<g id="XMLID_869_">
		<path id="XMLID_870_" class="st1" d="M93.5,182.8c-0.8,0-1.7-0.3-2.3-1l-12.1-12.1c-1.3-1.3-1.3-3.4,0-4.7c1.3-1.3,3.4-1.3,4.7,0
			l12.1,12.1c1.3,1.3,1.3,3.4,0,4.7C95.2,182.5,94.3,182.8,93.5,182.8z"/>
	</g>
	<g id="XMLID_867_">
		<path id="XMLID_868_" class="st1" d="M44.5,233.9c-0.8,0-1.7-0.3-2.3-1L30,220.8c-1.3-1.3-1.3-3.4,0-4.7c1.3-1.3,3.4-1.3,4.7,0
			l12.2,12.2c1.3,1.3,1.3,3.4,0,4.7C46.2,233.6,45.4,233.9,44.5,233.9z"/>
	</g>
	<g id="XMLID_865_">
		<path id="XMLID_866_" class="st1" d="M76.5,31.2c-0.8,0-1.7-0.3-2.3-1L62,18.1c-1.3-1.3-1.3-3.4,0-4.7c1.3-1.3,3.4-1.3,4.7,0
			l12.2,12.2c1.3,1.3,1.3,3.4,0,4.7C78.2,30.9,77.4,31.2,76.5,31.2z"/>
	</g>
	<g id="XMLID_863_">
		<path id="XMLID_864_" class="st1" d="M182.2,195.8c-0.9,0-1.7-0.3-2.3-1l-12.1-12.2c-1.3-1.3-1.3-3.4,0-4.7c1.3-1.3,3.4-1.3,4.7,0
			l12.1,12.2c1.3,1.3,1.3,3.4,0,4.7C183.9,195.5,183.1,195.8,182.2,195.8z"/>
	</g>
	<g id="XMLID_861_">
		<path id="XMLID_862_" class="st1" d="M159.6,111c-0.8,0-1.7-0.3-2.3-1L145.2,98c-1.3-1.3-1.3-3.4,0-4.7c1.3-1.3,3.4-1.3,4.7,0
			l12.1,12.1c1.3,1.3,1.3,3.4,0,4.7C161.3,110.7,160.4,111,159.6,111z"/>
	</g>
	<g id="XMLID_859_">
		<path id="XMLID_860_" class="st1" d="M252.7,260.5c-0.8,0-1.7-0.3-2.3-1l-12.1-12.1c-1.3-1.3-1.3-3.4,0-4.7c1.3-1.3,3.4-1.3,4.7,0
			l12.1,12.1c1.3,1.3,1.3,3.4,0,4.7C254.4,260.2,253.6,260.5,252.7,260.5z"/>
	</g>
	<g id="XMLID_855_">
		<path id="XMLID_856_" class="st1" d="M20.8,32.8c-5.8,0-10.6-4.8-10.6-10.6c0-5.8,4.8-10.6,10.6-10.6s10.6,4.8,10.6,10.6
			C31.4,28.1,26.6,32.8,20.8,32.8z M20.8,18.3c-2.2,0-4,1.8-4,4c0,2.2,1.8,4,4,4s4-1.8,4-4C24.7,20.1,23,18.3,20.8,18.3z"/>
	</g>
	<g id="XMLID_853_">
		<path id="XMLID_854_" class="st1" d="M44.9,50.1c-0.8,0-1.7-0.3-2.3-1L30.4,37c-1.3-1.3-1.3-3.4,0-4.7c1.3-1.3,3.4-1.3,4.7,0
			l12.2,12.2c1.3,1.3,1.3,3.4,0,4.7C46.6,49.8,45.8,50.1,44.9,50.1z"/>
	</g>
	<g id="XMLID_851_">
		<path id="XMLID_852_" class="st1" d="M262.5,143.7c-0.8,0-1.7-0.3-2.3-1L248,130.6c-1.3-1.3-1.3-3.4,0-4.7c1.3-1.3,3.4-1.3,4.7,0
			l12.2,12.2c1.3,1.3,1.3,3.4,0,4.7C264.2,143.4,263.3,143.7,262.5,143.7z"/>
	</g>
	<g id="XMLID_847_">
		<path id="XMLID_848_" class="st1" d="M230.8,54.2c-0.3,0-0.6,0-0.9-0.1c-1.1-0.3-2-1.2-2.3-2.3l-5.8-21.7c-0.3-1.1,0-2.4,0.9-3.2
			c0.8-0.8,2.1-1.2,3.2-0.9l21.7,5.8c1.1,0.3,2,1.2,2.3,2.3s0,2.4-0.9,3.2l-15.9,15.9C232.5,53.8,231.7,54.2,230.8,54.2z
			 M229.7,33.9l2.8,10.6l7.8-7.8L229.7,33.9z"/>
	</g>
	<g id="XMLID_843_">
		<path id="XMLID_844_" class="st1" d="M76.2,110.4c-0.3,0-0.6,0-0.9-0.1c-1.1-0.3-2-1.2-2.3-2.3l-5.8-21.6c-0.3-1.1,0-2.4,0.9-3.2
			c0.8-0.8,2.1-1.2,3.2-0.9L92.9,88c1.1,0.3,2,1.2,2.3,2.3c0.3,1.1,0,2.4-0.9,3.2l-7.9,7.9l-7.9,7.9C77.9,110,77.1,110.4,76.2,110.4
			z M75.1,90.1l2.8,10.5l7.7-7.7L75.1,90.1z"/>
	</g>
	<g id="XMLID_839_">
		<path id="XMLID_840_" class="st1" d="M190.2,243L190.2,243c-1.2,0-2.3-0.6-2.9-1.6L176.1,222c-0.6-1-0.6-2.3,0-3.3
			c0.6-1,1.7-1.7,2.9-1.7h22.4c1.2,0,2.3,0.6,2.9,1.6c0.6,1,0.6,2.3,0,3.3l-5.5,9.7l-5.6,9.7C192.5,242.3,191.4,243,190.2,243z
			 M184.7,223.6l5.5,9.5l5.5-9.5H184.7z"/>
	</g>
	<g id="XMLID_835_">
		<path id="XMLID_836_" class="st1" d="M89.8,262.9c-0.3,0-0.6,0-0.9-0.1c-1.1-0.3-2-1.2-2.3-2.3l-5.8-21.6c-0.3-1.1,0-2.4,0.9-3.2
			c0.8-0.8,2.1-1.2,3.2-0.9l21.7,5.8c1.1,0.3,2,1.2,2.3,2.3c0.3,1.1,0,2.4-0.9,3.2l-7.9,7.9l-8,7.9
			C91.5,262.6,90.7,262.9,89.8,262.9z M88.7,242.7l2.8,10.6l7.8-7.7L88.7,242.7z"/>
	</g>
	<g id="XMLID_833_">
		<circle id="XMLID_834_" class="st1" cx="64.4" cy="166.6" r="4.4"/>
	</g>
	<g id="XMLID_831_">
		<circle id="XMLID_832_" class="st1" cx="128" cy="186.5" r="4.4"/>
	</g>
	<g id="XMLID_829_">
		<circle id="XMLID_830_" class="st1" cx="161" cy="264.3" r="4.4"/>
	</g>
	<g id="XMLID_827_">
		<circle id="XMLID_828_" class="st1" cx="136.5" cy="145.6" r="4.4"/>
	</g>
	<g id="XMLID_825_">
		<circle id="XMLID_826_" class="st1" cx="29.3" cy="84.1" r="4.4"/>
	</g>
	<g id="XMLID_823_">
		<circle id="XMLID_824_" class="st1" cx="180.6" cy="21.8" r="4.4"/>
	</g>
	<g id="XMLID_821_">
		<circle id="XMLID_822_" class="st1" cx="97.9" cy="47.1" r="4.4"/>
	</g>
	<g id="XMLID_819_">
		<circle id="XMLID_820_" class="st1" cx="206.4" cy="104.6" r="4.4"/>
	</g>
	<g id="XMLID_817_">
		<path id="XMLID_818_" class="st1" d="M52.9,263.1H30.9c-1.8,0-3.3-1.5-3.3-3.3s1.5-3.3,3.3-3.3h21.9c1.8,0,3.3,1.5,3.3,3.3
			S54.7,263.1,52.9,263.1z"/>
	</g>
	<g id="XMLID_815_">
		<path id="XMLID_816_" class="st1" d="M217.3,263.1h-21.9c-1.8,0-3.3-1.5-3.3-3.3s1.5-3.3,3.3-3.3h21.9c1.8,0,3.3,1.5,3.3,3.3
			S219.1,263.1,217.3,263.1z"/>
	</g>
	<g id="XMLID_813_">
		<path id="XMLID_814_" class="st1" d="M182.2,149.7h-21.9c-1.8,0-3.3-1.5-3.3-3.3c0-1.8,1.5-3.3,3.3-3.3h21.9
			c1.8,0,3.3,1.5,3.3,3.3C185.6,148.2,184.1,149.7,182.2,149.7z"/>
	</g>
	<g id="XMLID_811_">
		<path id="XMLID_812_" class="st1" d="M87.4,211.5H65.5c-1.8,0-3.3-1.5-3.3-3.3s1.5-3.3,3.3-3.3h21.9c1.8,0,3.3,1.5,3.3,3.3
			S89.3,211.5,87.4,211.5z"/>
	</g>
	<g id="XMLID_809_">
		<path id="XMLID_810_" class="st1" d="M191.6,74.9h-21.9c-1.8,0-3.3-1.5-3.3-3.3s1.5-3.3,3.3-3.3h21.9c1.8,0,3.3,1.5,3.3,3.3
			S193.4,74.9,191.6,74.9z"/>
	</g>
	<g id="XMLID_807_">
		<path id="XMLID_808_" class="st1" d="M267.4,14.9h-21.9c-1.8,0-3.3-1.5-3.3-3.3s1.5-3.3,3.3-3.3h21.9c1.8,0,3.3,1.5,3.3,3.3
			S269.2,14.9,267.4,14.9z"/>
	</g>
	<g id="XMLID_60_">
		<path id="XMLID_61_" class="st1" d="M250.3,196.1h-21.9c-1.8,0-3.3-1.5-3.3-3.3s1.5-3.3,3.3-3.3h21.9c1.8,0,3.3,1.5,3.3,3.3
			S252.2,196.1,250.3,196.1z"/>
	</g>
	<g id="XMLID_58_">
		<path id="XMLID_59_" class="st1" d="M131.7,109.5h-21.9c-1.8,0-3.3-1.5-3.3-3.3s1.5-3.3,3.3-3.3h21.9c1.8,0,3.3,1.5,3.3,3.3
			S133.5,109.5,131.7,109.5z"/>
	</g>
	<g id="XMLID_56_">
		<path id="XMLID_57_" class="st1" d="M35.2,147.2H13.2c-1.8,0-3.3-1.5-3.3-3.3s1.5-3.3,3.3-3.3h21.9c1.8,0,3.3,1.5,3.3,3.3
			S37,147.2,35.2,147.2z"/>
	</g>
</g>
</svg>
